<svg width="300" height="300" xmlns="http://www.w3.org/2000/svg" data-container-transform="scale(1 1 ) translate(0 )" data-icon="person-genderless" version="1.1">

 <g>
  <title>Layer 1</title>
  <path stroke="null" id="svg_1" d="m150.18288,15.30603c-33.72381,0 -61.31601,29.61592 -61.31601,76.15522s19.16125,93.0786 61.31601,93.0786c41.38831,0 61.31601,-46.5393 61.31601,-93.0786s-27.5922,-76.15522 -61.31601,-76.15522zm-61.31601,169.23382c-33.72381,0 -61.31601,30.46209 -61.31601,67.69353l0,29.61592c0,2.53851 1.5329,4.23085 3.83225,4.23085l237.59954,0c2.29935,0 3.83225,-1.69234 3.83225,-4.23085l0,-29.61592c0,-37.23144 -27.5922,-67.69353 -61.31601,-67.69353l-3.11179,0c-1.5329,0 -4.45308,1.79388 -5.98598,2.64851c-13.7961,14.38487 -32.28288,22.74503 -52.21825,22.74503c-19.9277,0 -38.41448,-8.36015 -52.21825,-22.74503c-1.5329,-0.84617 -3.68663,-2.64851 -5.98598,-2.64851l-3.11179,0z"/>
 </g>
</svg>