<?xml version="1.0" standalone="no"?>
<!DOCTYPE svg PUBLIC "-//W3C//DTD SVG 20010904//EN"
 "http://www.w3.org/TR/2001/REC-SVG-20010904/DTD/svg10.dtd">
<svg version="1.0" xmlns="http://www.w3.org/2000/svg"
 width="522.000000pt" height="226.000000pt" viewBox="0 0 522.000000 226.000000"
 preserveAspectRatio="xMidYMid meet">

<g transform="translate(0.000000,226.000000) scale(0.100000,-0.100000)"
fill="#000000" stroke="none">
<path d="M1111 1882 c-31 -13 -67 -36 -81 -51 -14 -15 -41 -34 -60 -41 -49
-19 -95 -55 -163 -125 -53 -55 -59 -59 -71 -42 -13 16 -21 10 -100 -75 -85
-91 -92 -104 -88 -167 1 -14 -3 -30 -9 -37 -7 -9 -6 -18 2 -31 9 -15 8 -26 -5
-51 -16 -31 -15 -32 13 -65 16 -18 46 -42 65 -52 37 -20 46 -39 24 -48 -7 -3
2 -6 20 -6 20 -1 45 8 60 20 l27 21 10 -35 c6 -20 20 -46 33 -59 40 -44 25
-148 -40 -269 -39 -74 -34 -86 45 -114 69 -25 74 -30 85 -80 8 -39 9 -40 55
-43 26 -2 47 -6 47 -8 0 -3 -9 -17 -20 -31 -27 -35 -25 -48 10 -73 24 -17 30
-29 30 -57 0 -49 40 -100 84 -108 24 -5 45 -1 73 14 51 26 103 69 103 86 0 21
-39 63 -90 96 -27 18 -47 36 -44 41 3 5 39 26 81 46 l75 38 -41 27 c-23 15
-41 30 -41 34 0 3 11 21 26 40 24 32 49 43 56 24 2 -6 24 -16 50 -22 55 -15
101 -4 106 24 5 26 -12 42 -84 77 -117 56 -163 117 -141 185 36 110 207 156
301 82 28 -23 28 -23 12 -56 -22 -41 -42 -49 -78 -28 -36 21 -91 22 -108 3
-27 -34 -8 -59 75 -100 86 -42 110 -62 131 -113 16 -37 22 -39 50 -19 22 17
21 3 22 189 l2 148 48 -3 47 -3 3 -92 3 -93 60 0 c67 0 128 30 130 65 0 11 1
43 2 70 l2 50 52 3 c49 3 53 1 59 -22 5 -22 8 -23 20 -11 8 8 35 31 60 52 51
41 67 72 58 109 -6 23 -8 24 -23 9 -29 -25 -33 -18 -26 45 5 47 4 66 -9 85
-25 38 -40 116 -24 127 10 6 8 8 -4 8 -15 0 -18 9 -19 48 0 41 -16 107 -18 75
-2 -27 -20 -11 -36 32 -19 47 -65 117 -65 97 0 -19 -24 -14 -38 8 -8 14 -23
20 -46 20 -19 0 -38 5 -41 10 -12 19 -114 90 -129 90 -8 0 -21 7 -30 15 -12
12 -29 14 -85 9 -39 -4 -71 -11 -71 -17 0 -5 -5 -5 -13 2 -8 6 -33 8 -64 4
-42 -5 -54 -2 -71 15 -32 32 -166 35 -241 4z"/>
<path d="M4025 1082 c-72 -24 -91 -37 -124 -86 -42 -60 -59 -158 -42 -229 40
-158 206 -232 358 -160 30 14 33 19 33 59 l0 43 -46 -24 c-65 -35 -103 -39
-159 -20 -81 27 -123 96 -111 183 18 133 142 190 263 122 l53 -30 0 49 c0 57
-13 69 -100 95 -63 19 -61 19 -125 -2z"/>
<path d="M3416 1050 c-91 -46 -136 -119 -136 -222 0 -117 62 -200 178 -239 59
-20 69 -20 119 -8 62 14 119 51 156 101 89 119 45 298 -91 367 -56 28 -170 29
-226 1z m190 -69 c64 -29 94 -76 94 -146 0 -95 -44 -153 -133 -177 -76 -20
-158 16 -194 86 -32 62 -12 178 36 211 72 50 128 57 197 26z"/>
<path d="M2130 820 l0 -230 145 0 145 0 0 30 0 29 -102 3 -103 3 0 70 0 70 78
3 77 3 0 29 0 30 -80 0 -81 0 3 63 3 62 85 5 c94 6 110 12 110 41 0 18 -8 19
-140 19 l-140 0 0 -230z"/>
<path d="M2530 819 l0 -230 33 3 32 3 3 85 c3 89 9 100 53 100 22 0 33 -13 78
-95 l53 -95 44 0 c24 0 44 3 44 8 0 4 -11 24 -25 44 -14 20 -25 40 -25 43 0 3
-11 23 -25 43 -28 42 -32 67 -10 76 49 18 74 147 37 192 -34 42 -74 54 -187
54 l-105 0 0 -231z m218 145 c29 -33 23 -78 -15 -112 -21 -19 -34 -22 -77 -20
l-51 3 -3 69 c-4 98 -3 100 66 93 45 -5 62 -12 80 -33z"/>
<path d="M2954 1037 c-2 -7 -3 -109 -2 -227 l3 -215 143 -3 142 -3 0 30 0 30
-102 3 -103 3 -3 198 -2 197 -36 0 c-19 0 -37 -6 -40 -13z"/>
<path d="M4360 820 l0 -230 35 0 c21 0 35 5 36 13 1 6 2 19 3 27 2 8 3 43 4
78 1 34 5 62 10 62 4 0 42 -41 85 -90 77 -88 79 -90 123 -90 56 0 56 12 1 70
-105 110 -158 172 -155 181 2 6 48 55 103 110 l100 99 -55 0 -55 1 -71 -77
c-43 -47 -75 -74 -82 -70 -7 4 -12 35 -12 77 l0 69 -35 0 -35 0 0 -230z"/>
<path d="M1968 947 c-16 -13 -28 -34 -30 -52 -3 -28 -7 -30 -48 -35 -25 -3
-65 -16 -90 -30 l-45 -25 70 -3 c122 -4 115 3 115 -113 l0 -100 33 3 32 3 3
188 c1 103 -1 187 -5 187 -5 0 -20 -10 -35 -23z"/>
<path d="M1652 744 c-19 -13 -22 -24 -22 -85 l0 -69 35 0 35 0 0 85 c0 91 -5
99 -48 69z"/>
<path d="M1489 660 c-19 -11 -55 -30 -81 -42 -27 -12 -48 -26 -48 -31 0 -13
90 1 117 19 24 15 59 62 51 69 -2 3 -20 -4 -39 -15z"/>
</g>
</svg>
